# Original schematic head for construction practice
# Ratios are illustrative, not measurements of an external model.
o schematic_head
v -0.110000 0.000000 0.050000
v -0.071500 0.000000 0.200000
v -0.022000 0.000000 0.200000
v 0.000000 0.000000 0.200000
v 0.022000 0.000000 0.200000
v 0.071500 0.000000 0.200000
v 0.110000 0.000000 0.050000
v 0.096800 0.000000 -0.016250
v 0.071500 0.000000 -0.025000
v 0.000000 0.000000 -0.025000
v -0.071500 0.000000 -0.025000
v -0.096800 0.000000 -0.016250
v -0.145000 0.060000 0.050000
v -0.094250 0.060000 0.308000
v -0.029000 0.060000 0.308000
v 0.000000 0.060000 0.308000
v 0.029000 0.060000 0.308000
v 0.094250 0.060000 0.308000
v 0.145000 0.060000 0.050000
v 0.127600 0.060000 -0.045500
v 0.094250 0.060000 -0.070000
v 0.000000 0.060000 -0.070000
v -0.094250 0.060000 -0.070000
v -0.127600 0.060000 -0.045500
v -0.205000 0.120000 0.050000
v -0.133250 0.120000 0.303000
v -0.041000 0.120000 0.303000
v 0.000000 0.120000 0.303000
v 0.041000 0.120000 0.303000
v 0.133250 0.120000 0.303000
v 0.205000 0.120000 0.050000
v 0.180400 0.120000 -0.104000
v 0.133250 0.120000 -0.160000
v 0.000000 0.120000 -0.160000
v -0.133250 0.120000 -0.160000
v -0.180400 0.120000 -0.104000
v -0.250000 0.178000 0.050000
v -0.162500 0.178000 0.315000
v -0.050000 0.178000 0.315000
v 0.000000 0.178000 0.315000
v 0.050000 0.178000 0.315000
v 0.162500 0.178000 0.315000
v 0.250000 0.178000 0.050000
v 0.220000 0.178000 -0.162500
v 0.162500 0.178000 -0.250000
v 0.000000 0.178000 -0.250000
v -0.162500 0.178000 -0.250000
v -0.220000 0.178000 -0.162500
v -0.292000 0.267000 0.050000
v -0.189800 0.267000 0.290000
v -0.058400 0.267000 0.383000
v 0.000000 0.267000 0.383000
v 0.058400 0.267000 0.383000
v 0.189800 0.267000 0.290000
v 0.292000 0.267000 0.050000
v 0.256960 0.267000 -0.221000
v 0.189800 0.267000 -0.340000
v 0.000000 0.267000 -0.340000
v -0.189800 0.267000 -0.340000
v -0.256960 0.267000 -0.221000
v -0.322000 0.400000 0.050000
v -0.209300 0.400000 0.314000
v -0.064400 0.400000 0.354000
v 0.000000 0.400000 0.354000
v 0.064400 0.400000 0.354000
v 0.209300 0.400000 0.314000
v 0.322000 0.400000 0.050000
v 0.283360 0.400000 -0.266500
v 0.209300 0.400000 -0.410000
v 0.000000 0.400000 -0.410000
v -0.209300 0.400000 -0.410000
v -0.283360 0.400000 -0.266500
v -0.333333 0.500000 0.050000
v -0.216667 0.500000 0.205000
v -0.066667 0.500000 0.312000
v 0.000000 0.500000 0.312000
v 0.066667 0.500000 0.312000
v 0.216667 0.500000 0.205000
v 0.333333 0.500000 0.050000
v 0.293333 0.500000 -0.292500
v 0.216667 0.500000 -0.450000
v 0.000000 0.500000 -0.450000
v -0.216667 0.500000 -0.450000
v -0.293333 0.500000 -0.292500
v -0.330000 0.533000 0.050000
v -0.214500 0.533000 0.300000
v -0.066000 0.533000 0.305000
v 0.000000 0.533000 0.305000
v 0.066000 0.533000 0.305000
v 0.214500 0.533000 0.300000
v 0.330000 0.533000 0.050000
v 0.290400 0.533000 -0.292500
v 0.214500 0.533000 -0.450000
v 0.000000 0.533000 -0.450000
v -0.214500 0.533000 -0.450000
v -0.290400 0.533000 -0.292500
v -0.302000 0.800000 0.050000
v -0.196300 0.800000 0.250000
v -0.060400 0.800000 0.250000
v 0.000000 0.800000 0.250000
v 0.060400 0.800000 0.250000
v 0.196300 0.800000 0.250000
v 0.302000 0.800000 0.050000
v 0.265760 0.800000 -0.260000
v 0.196300 0.800000 -0.400000
v 0.000000 0.800000 -0.400000
v -0.196300 0.800000 -0.400000
v -0.265760 0.800000 -0.260000
v -0.225000 0.940000 0.050000
v -0.146250 0.940000 0.130000
v -0.045000 0.940000 0.130000
v 0.000000 0.940000 0.130000
v 0.045000 0.940000 0.130000
v 0.146250 0.940000 0.130000
v 0.225000 0.940000 0.050000
v 0.198000 0.940000 -0.188500
v 0.146250 0.940000 -0.290000
v 0.000000 0.940000 -0.290000
v -0.146250 0.940000 -0.290000
v -0.198000 0.940000 -0.188500
v -0.075000 1.000000 0.050000
v -0.048750 1.000000 -0.010000
v -0.015000 1.000000 -0.010000
v 0.000000 1.000000 -0.010000
v 0.015000 1.000000 -0.010000
v 0.048750 1.000000 -0.010000
v 0.075000 1.000000 0.050000
v 0.066000 1.000000 -0.097500
v 0.048750 1.000000 -0.150000
v 0.000000 1.000000 -0.150000
v -0.048750 1.000000 -0.150000
v -0.066000 1.000000 -0.097500
v 0.305000 0.290000 -0.120000
v 0.305000 0.500000 -0.120000
v 0.370000 0.470000 -0.100000
v 0.360000 0.320000 -0.100000
v 0.305000 0.290000 -0.210000
v 0.305000 0.500000 -0.210000
v 0.370000 0.470000 -0.180000
v 0.360000 0.320000 -0.180000
v -0.305000 0.290000 -0.120000
v -0.305000 0.500000 -0.120000
v -0.370000 0.470000 -0.100000
v -0.360000 0.320000 -0.100000
v -0.305000 0.290000 -0.210000
v -0.305000 0.500000 -0.210000
v -0.370000 0.470000 -0.180000
v -0.360000 0.320000 -0.180000
f 1 2 14 13
f 2 3 15 14
f 3 4 16 15
f 4 5 17 16
f 5 6 18 17
f 6 7 19 18
f 7 8 20 19
f 8 9 21 20
f 9 10 22 21
f 10 11 23 22
f 11 12 24 23
f 12 1 13 24
f 13 14 26 25
f 14 15 27 26
f 15 16 28 27
f 16 17 29 28
f 17 18 30 29
f 18 19 31 30
f 19 20 32 31
f 20 21 33 32
f 21 22 34 33
f 22 23 35 34
f 23 24 36 35
f 24 13 25 36
f 25 26 38 37
f 26 27 39 38
f 27 28 40 39
f 28 29 41 40
f 29 30 42 41
f 30 31 43 42
f 31 32 44 43
f 32 33 45 44
f 33 34 46 45
f 34 35 47 46
f 35 36 48 47
f 36 25 37 48
f 37 38 50 49
f 38 39 51 50
f 39 40 52 51
f 40 41 53 52
f 41 42 54 53
f 42 43 55 54
f 43 44 56 55
f 44 45 57 56
f 45 46 58 57
f 46 47 59 58
f 47 48 60 59
f 48 37 49 60
f 49 50 62 61
f 50 51 63 62
f 51 52 64 63
f 52 53 65 64
f 53 54 66 65
f 54 55 67 66
f 55 56 68 67
f 56 57 69 68
f 57 58 70 69
f 58 59 71 70
f 59 60 72 71
f 60 49 61 72
f 61 62 74 73
f 62 63 75 74
f 63 64 76 75
f 64 65 77 76
f 65 66 78 77
f 66 67 79 78
f 67 68 80 79
f 68 69 81 80
f 69 70 82 81
f 70 71 83 82
f 71 72 84 83
f 72 61 73 84
f 73 74 86 85
f 74 75 87 86
f 75 76 88 87
f 76 77 89 88
f 77 78 90 89
f 78 79 91 90
f 79 80 92 91
f 80 81 93 92
f 81 82 94 93
f 82 83 95 94
f 83 84 96 95
f 84 73 85 96
f 85 86 98 97
f 86 87 99 98
f 87 88 100 99
f 88 89 101 100
f 89 90 102 101
f 90 91 103 102
f 91 92 104 103
f 92 93 105 104
f 93 94 106 105
f 94 95 107 106
f 95 96 108 107
f 96 85 97 108
f 97 98 110 109
f 98 99 111 110
f 99 100 112 111
f 100 101 113 112
f 101 102 114 113
f 102 103 115 114
f 103 104 116 115
f 104 105 117 116
f 105 106 118 117
f 106 107 119 118
f 107 108 120 119
f 108 97 109 120
f 109 110 122 121
f 110 111 123 122
f 111 112 124 123
f 112 113 125 124
f 113 114 126 125
f 114 115 127 126
f 115 116 128 127
f 116 117 129 128
f 117 118 130 129
f 118 119 131 130
f 119 120 132 131
f 120 109 121 132
f 12 11 10 9 8 7 6 5 4 3 2 1
f 121 122 123 124 125 126 127 128 129 130 131 132
g ears_separate_volumes
f 133 136 135 134
f 137 138 139 140
f 133 134 138 137
f 134 135 139 138
f 135 136 140 139
f 136 133 137 140
f 142 143 144 141
f 148 147 146 145
f 145 146 142 141
f 146 147 143 142
f 147 148 144 143
f 148 145 141 144
