<svg xmlns="http://www.w3.org/2000/svg" width="1000" height="700" viewBox="0 0 1000 700">
<rect width="100%" height="100%" fill="#ffffff"/>
<text x="35" y="40" font-family="sans-serif" font-size="24" fill="#163c50">正面の面を保った立方体</text>
<line x1="140.00000" y1="580.00000" x2="140.00000" y2="60.00000" stroke="#e7edf0" stroke-width="1" stroke-dasharray=""/>
<line x1="180.00000" y1="580.00000" x2="180.00000" y2="60.00000" stroke="#e7edf0" stroke-width="1" stroke-dasharray=""/>
<line x1="220.00000" y1="580.00000" x2="220.00000" y2="60.00000" stroke="#e7edf0" stroke-width="1" stroke-dasharray=""/>
<line x1="260.00000" y1="580.00000" x2="260.00000" y2="60.00000" stroke="#e7edf0" stroke-width="1" stroke-dasharray=""/>
<line x1="300.00000" y1="580.00000" x2="300.00000" y2="60.00000" stroke="#e7edf0" stroke-width="1" stroke-dasharray=""/>
<line x1="340.00000" y1="580.00000" x2="340.00000" y2="60.00000" stroke="#e7edf0" stroke-width="1" stroke-dasharray=""/>
<line x1="380.00000" y1="580.00000" x2="380.00000" y2="60.00000" stroke="#e7edf0" stroke-width="1" stroke-dasharray=""/>
<line x1="420.00000" y1="580.00000" x2="420.00000" y2="60.00000" stroke="#e7edf0" stroke-width="1" stroke-dasharray=""/>
<line x1="460.00000" y1="580.00000" x2="460.00000" y2="60.00000" stroke="#e7edf0" stroke-width="1" stroke-dasharray=""/>
<line x1="500.00000" y1="580.00000" x2="500.00000" y2="60.00000" stroke="#e7edf0" stroke-width="1" stroke-dasharray=""/>
<line x1="540.00000" y1="580.00000" x2="540.00000" y2="60.00000" stroke="#e7edf0" stroke-width="1" stroke-dasharray=""/>
<line x1="580.00000" y1="580.00000" x2="580.00000" y2="60.00000" stroke="#e7edf0" stroke-width="1" stroke-dasharray=""/>
<line x1="620.00000" y1="580.00000" x2="620.00000" y2="60.00000" stroke="#e7edf0" stroke-width="1" stroke-dasharray=""/>
<line x1="660.00000" y1="580.00000" x2="660.00000" y2="60.00000" stroke="#e7edf0" stroke-width="1" stroke-dasharray=""/>
<line x1="700.00000" y1="580.00000" x2="700.00000" y2="60.00000" stroke="#e7edf0" stroke-width="1" stroke-dasharray=""/>
<line x1="740.00000" y1="580.00000" x2="740.00000" y2="60.00000" stroke="#e7edf0" stroke-width="1" stroke-dasharray=""/>
<line x1="780.00000" y1="580.00000" x2="780.00000" y2="60.00000" stroke="#e7edf0" stroke-width="1" stroke-dasharray=""/>
<line x1="820.00000" y1="580.00000" x2="820.00000" y2="60.00000" stroke="#e7edf0" stroke-width="1" stroke-dasharray=""/>
<line x1="860.00000" y1="580.00000" x2="860.00000" y2="60.00000" stroke="#e7edf0" stroke-width="1" stroke-dasharray=""/>
<line x1="140.00000" y1="560.00000" x2="860.00000" y2="560.00000" stroke="#e7edf0" stroke-width="1" stroke-dasharray=""/>
<line x1="140.00000" y1="520.00000" x2="860.00000" y2="520.00000" stroke="#e7edf0" stroke-width="1" stroke-dasharray=""/>
<line x1="140.00000" y1="480.00000" x2="860.00000" y2="480.00000" stroke="#e7edf0" stroke-width="1" stroke-dasharray=""/>
<line x1="140.00000" y1="440.00000" x2="860.00000" y2="440.00000" stroke="#e7edf0" stroke-width="1" stroke-dasharray=""/>
<line x1="140.00000" y1="400.00000" x2="860.00000" y2="400.00000" stroke="#e7edf0" stroke-width="1" stroke-dasharray=""/>
<line x1="140.00000" y1="360.00000" x2="860.00000" y2="360.00000" stroke="#e7edf0" stroke-width="1" stroke-dasharray=""/>
<line x1="140.00000" y1="320.00000" x2="860.00000" y2="320.00000" stroke="#e7edf0" stroke-width="1" stroke-dasharray=""/>
<line x1="140.00000" y1="280.00000" x2="860.00000" y2="280.00000" stroke="#e7edf0" stroke-width="1" stroke-dasharray=""/>
<line x1="140.00000" y1="240.00000" x2="860.00000" y2="240.00000" stroke="#e7edf0" stroke-width="1" stroke-dasharray=""/>
<line x1="140.00000" y1="200.00000" x2="860.00000" y2="200.00000" stroke="#e7edf0" stroke-width="1" stroke-dasharray=""/>
<line x1="140.00000" y1="160.00000" x2="860.00000" y2="160.00000" stroke="#e7edf0" stroke-width="1" stroke-dasharray=""/>
<line x1="140.00000" y1="120.00000" x2="860.00000" y2="120.00000" stroke="#e7edf0" stroke-width="1" stroke-dasharray=""/>
<line x1="140.00000" y1="80.00000" x2="860.00000" y2="80.00000" stroke="#e7edf0" stroke-width="1" stroke-dasharray=""/>
<line x1="140.00000" y1="320.00000" x2="860.00000" y2="320.00000" stroke="#9aabb2" stroke-width="1" stroke-dasharray=""/>
<line x1="500.00000" y1="580.00000" x2="500.00000" y2="60.00000" stroke="#9aabb2" stroke-width="1" stroke-dasharray=""/>
<line x1="526.66667" y1="560.00000" x2="516.00000" y2="464.00000" stroke="#1d6079" stroke-width="3" stroke-dasharray=""/>
<line x1="526.66667" y1="560.00000" x2="526.66667" y2="293.33333" stroke="#1d6079" stroke-width="3" stroke-dasharray=""/>
<line x1="526.66667" y1="560.00000" x2="793.33333" y2="560.00000" stroke="#1d6079" stroke-width="3" stroke-dasharray=""/>
<line x1="516.00000" y1="464.00000" x2="516.00000" y2="304.00000" stroke="#1d6079" stroke-width="3" stroke-dasharray=""/>
<line x1="516.00000" y1="464.00000" x2="676.00000" y2="464.00000" stroke="#8e9ca2" stroke-width="1.5" stroke-dasharray="7 5"/>
<line x1="526.66667" y1="293.33333" x2="516.00000" y2="304.00000" stroke="#1d6079" stroke-width="3" stroke-dasharray=""/>
<line x1="526.66667" y1="293.33333" x2="793.33333" y2="293.33333" stroke="#1d6079" stroke-width="3" stroke-dasharray=""/>
<line x1="516.00000" y1="304.00000" x2="676.00000" y2="304.00000" stroke="#8e9ca2" stroke-width="1.5" stroke-dasharray="7 5"/>
<line x1="793.33333" y1="560.00000" x2="676.00000" y2="464.00000" stroke="#8e9ca2" stroke-width="1.5" stroke-dasharray="7 5"/>
<line x1="793.33333" y1="560.00000" x2="793.33333" y2="293.33333" stroke="#1d6079" stroke-width="3" stroke-dasharray=""/>
<line x1="676.00000" y1="464.00000" x2="676.00000" y2="304.00000" stroke="#8e9ca2" stroke-width="1.5" stroke-dasharray="7 5"/>
<line x1="793.33333" y1="293.33333" x2="676.00000" y2="304.00000" stroke="#8e9ca2" stroke-width="1.5" stroke-dasharray="7 5"/>
<circle cx="526.6666666666666" cy="560.0" r="4" fill="#a54b30"/>
<text x="498.667" y="582.000" font-family="sans-serif" font-size="16" fill="#203d4d">P0</text>
<circle cx="516.0" cy="464.0" r="4" fill="#a54b30"/>
<text x="488.000" y="486.000" font-family="sans-serif" font-size="16" fill="#203d4d">P1</text>
<circle cx="526.6666666666666" cy="293.3333333333333" r="4" fill="#a54b30"/>
<text x="498.667" y="283.333" font-family="sans-serif" font-size="16" fill="#203d4d">P2</text>
<circle cx="516.0" cy="304.0" r="4" fill="#a54b30"/>
<text x="488.000" y="316.000" font-family="sans-serif" font-size="16" fill="#203d4d">P3</text>
<circle cx="793.3333333333333" cy="560.0" r="4" fill="#a54b30"/>
<text x="801.333" y="582.000" font-family="sans-serif" font-size="16" fill="#203d4d">P4</text>
<circle cx="676.0" cy="464.0" r="4" fill="#a54b30"/>
<text x="684.000" y="486.000" font-family="sans-serif" font-size="16" fill="#203d4d">P5</text>
<circle cx="793.3333333333333" cy="293.3333333333333" r="4" fill="#a54b30"/>
<text x="801.333" y="283.333" font-family="sans-serif" font-size="16" fill="#203d4d">P6</text>
<circle cx="676.0" cy="304.0" r="4" fill="#a54b30"/>
<text x="684.000" y="294.000" font-family="sans-serif" font-size="16" fill="#203d4d">P7</text>
<text x="40.000" y="635.000" font-family="sans-serif" font-size="16" fill="#203d4d">a=60 mm; angles=[0, 0, 0]; C=[36.0, -24.0, 120]; f=100 mm</text>
<text x="40.000" y="670.000" font-family="sans-serif" font-size="14" fill="#203d4d">Original synthetic projection / grid = 10 mm / dashed = hidden edges / not human drawing</text>
</svg>
